<svg width="1666" height="1400" xmlns="http://www.w3.org/2000/svg" xmlns:xlink="http://www.w3.org/1999/xlink" overflow="hidden"><defs><clipPath id="clip0"><rect x="603" y="480" width="1666" height="1400"/></clipPath></defs><g clip-path="url(#clip0)" transform="translate(-603 -480)"><path d="M1001.5 528C1001.5 502.871 1075.37 482.5 1166.5 482.5 1257.63 482.5 1331.5 502.871 1331.5 528L1331.5 710C1331.5 735.129 1257.63 755.5 1166.5 755.5 1075.37 755.5 1001.5 735.129 1001.5 710Z" fill="#FFFFFF" fill-rule="evenodd"/><path d="M1331.5 528C1331.5 553.129 1257.63 573.5 1166.5 573.5 1075.37 573.5 1001.5 553.129 1001.5 528" stroke="#4472C4" stroke-width="4.58333" stroke-miterlimit="8" fill="none" fill-rule="evenodd"/><path d="M1001.5 528C1001.5 502.871 1075.37 482.5 1166.5 482.5 1257.63 482.5 1331.5 502.871 1331.5 528L1331.5 710C1331.5 735.129 1257.63 755.5 1166.5 755.5 1075.37 755.5 1001.5 735.129 1001.5 710Z" stroke="#4472C4" stroke-width="4.58333" stroke-miterlimit="8" fill="none" fill-rule="evenodd"/><text font-family="Calibri,Calibri_MSFontService,sans-serif" font-weight="400" font-size="64" transform="matrix(1 0 0 1 1098.37 624)">EPIM <tspan font-size="64" x="-54.702" y="77">Database</tspan></text><path d="M1288.63 1357.5C1298.08 1357.5 1305.75 1349.83 1305.75 1340.37L1288.63 1340.37C1293.35 1340.37 1297.19 1336.54 1297.19 1331.81 1297.19 1327.08 1293.35 1323.25 1288.63 1323.25L1305.75 1323.25 1305.75 1100.63C1305.75 1091.17 1313.42 1083.5 1322.88 1083.5L1584.38 1083.5C1593.83 1083.5 1601.5 1091.17 1601.5 1100.63 1601.5 1110.08 1593.83 1117.75 1584.38 1117.75L1567.25 1117.75 1567.25 1340.37C1567.25 1349.83 1559.58 1357.5 1550.12 1357.5ZM1340 1100.63C1340 1110.08 1332.33 1117.75 1322.87 1117.75 1318.15 1117.75 1314.31 1113.92 1314.31 1109.19 1314.31 1104.46 1318.15 1100.63 1322.87 1100.63Z" fill="#FFFFFF" fill-rule="evenodd"/><path d="M1340 1100.63C1340 1110.08 1332.33 1117.75 1322.87 1117.75 1318.15 1117.75 1314.31 1113.92 1314.31 1109.19 1314.31 1104.46 1318.15 1100.63 1322.87 1100.63ZM1305.75 1340.37C1305.75 1349.83 1298.08 1357.5 1288.63 1357.5 1279.17 1357.5 1271.5 1349.83 1271.5 1340.37 1271.5 1330.92 1279.17 1323.25 1288.63 1323.25 1293.35 1323.25 1297.19 1327.08 1297.19 1331.81 1297.19 1336.54 1293.35 1340.37 1288.63 1340.37Z" fill="#CDCDCD" fill-rule="evenodd"/><path d="M1305.75 1323.25 1305.75 1100.63C1305.75 1091.17 1313.42 1083.5 1322.88 1083.5L1584.38 1083.5C1593.83 1083.5 1601.5 1091.17 1601.5 1100.63 1601.5 1110.08 1593.83 1117.75 1584.38 1117.75L1567.25 1117.75 1567.25 1340.37C1567.25 1349.83 1559.58 1357.5 1550.12 1357.5L1288.63 1357.5C1279.17 1357.5 1271.5 1349.83 1271.5 1340.37 1271.5 1330.92 1279.17 1323.25 1288.63 1323.25ZM1322.87 1083.5C1332.33 1083.5 1340 1091.17 1340 1100.63 1340 1110.08 1332.33 1117.75 1322.87 1117.75 1318.15 1117.75 1314.31 1113.92 1314.31 1109.19 1314.31 1104.46 1318.15 1100.63 1322.87 1100.63L1340 1100.63M1567.25 1117.75 1322.87 1117.75M1288.63 1323.25C1293.35 1323.25 1297.19 1327.08 1297.19 1331.81 1297.19 1336.54 1293.35 1340.37 1288.63 1340.37L1305.75 1340.37M1288.63 1357.5C1298.08 1357.5 1305.75 1349.83 1305.75 1340.37L1305.75 1323.25" stroke="#4472C4" stroke-width="4.58333" stroke-miterlimit="8" fill="none" fill-rule="evenodd"/><text font-family="Calibri,Calibri_MSFontService,sans-serif" font-weight="400" font-size="64" transform="matrix(1 0 0 1 1350.56 1211)">Rabbit <tspan font-size="64" x="36.0938" y="77">MQ</tspan></text><path d="M605.5 1129.17C605.5 1103.95 625.945 1083.5 651.167 1083.5L1096.83 1083.5C1122.05 1083.5 1142.5 1103.95 1142.5 1129.17L1142.5 1311.83C1142.5 1337.05 1122.05 1357.5 1096.83 1357.5L651.167 1357.5C625.945 1357.5 605.5 1337.05 605.5 1311.83Z" stroke="#ED7D31" stroke-width="4.58333" stroke-miterlimit="8" fill="#FFFFFF" fill-rule="evenodd"/><text font-family="Calibri,Calibri_MSFontService,sans-serif" font-weight="400" font-size="64" transform="matrix(1 0 0 1 731.878 1164)">Scheduler/ <tspan font-size="64" x="9.73956" y="77">Controller </tspan><tspan font-size="64" x="42.3958" y="154">Process</tspan></text><rect x="1729.5" y="1571.5" width="537" height="274" fill="#FFFFFF"/><path d="M1796.62 1571.5 1796.62 1845.5M1729.5 1605.75 2266.5 1605.75" stroke="#4472C4" stroke-width="4.58333" stroke-miterlimit="8" fill="none" fill-rule="evenodd"/><rect x="1729.5" y="1571.5" width="537" height="274" stroke="#4472C4" stroke-width="4.58333" stroke-miterlimit="8" fill="none"/><text font-family="Calibri,Calibri_MSFontService,sans-serif" font-weight="400" font-size="64" transform="matrix(1 0 0 1 1869.3 1670)">Disk Storage <tspan font-size="64" x="-1.99377" y="77">for exported </tspan><tspan font-size="64" x="-13.1771" y="154">data &amp; assets</tspan></text><path d="M1729.5 1394.22C1960.66 1442.39 1960.66 1346.05 2191.79 1346.05L2191.79 1095.64 1729.5 1095.64ZM1767.59 1095.64 1767.59 1063.18 2226.72 1063.18 2226.72 1315.16C2209.27 1315.16 2191.79 1316.9 2191.79 1316.9L2191.79 1095.64ZM1803.39 1063.18 1803.39 1031.5 2266.5 1031.5 2266.5 1282.69C2246.61 1282.69 2226.72 1284 2226.72 1284L2226.72 1063.18Z" fill="#FFFFFF" fill-rule="evenodd"/><path d="M1729.5 1095.64 2191.79 1095.64 2191.79 1346.05C1960.66 1346.05 1960.66 1442.39 1729.5 1394.22ZM1767.59 1095.64 1767.59 1063.18 2226.72 1063.18 2226.72 1315.16C2209.27 1315.16 2191.79 1316.9 2191.79 1316.9M1803.39 1063.18 1803.39 1031.5 2266.5 1031.5 2266.5 1282.69C2246.61 1282.69 2226.72 1284 2226.72 1284" stroke="#ED7D31" stroke-width="4.58333" stroke-miterlimit="8" fill="none" fill-rule="evenodd"/><text font-family="Calibri,Calibri_MSFontService,sans-serif" font-weight="400" font-size="64" transform="matrix(1 0 0 1 1812.73 1189)">Concurrent <tspan font-size="64" x="48.9729" y="77">Worker </tspan><tspan font-size="64" x="19.4791" y="154">Processes</tspan></text><rect x="1566.5" y="510.5" width="330" height="221" fill="#FFFFFF"/><path d="M1607.75 510.5 1607.75 731.5M1855.25 510.5 1855.25 731.5" stroke="#4472C4" stroke-width="4.58333" stroke-miterlimit="8" fill="none" fill-rule="evenodd"/><rect x="1566.5" y="510.5" width="330" height="221" stroke="#4472C4" stroke-width="4.58333" stroke-miterlimit="8" fill="none"/><text font-family="Calibri,Calibri_MSFontService,sans-serif" font-weight="400" font-size="64" transform="matrix(1 0 0 1 1674.39 604)">Rest <tspan font-size="64" x="13.75" y="77">API</tspan></text><path d="M1142 1218.85 1281.88 1218.85 1281.88 1221.15 1142 1221.15ZM1277.3 1206.25 1304.8 1220 1277.3 1233.75Z" fill="#4472C4"/><path d="M1566 1218.85 1705.88 1218.85 1705.88 1221.15 1566 1221.15ZM1701.3 1206.25 1728.8 1220 1701.3 1233.75Z" fill="#4472C4"/><path d="M1167.75 755 1167.75 893.371 874 893.371 875.146 892.225 875.146 1059.33 872.854 1059.33 872.854 891.079 1166.6 891.079 1165.45 892.225 1165.45 755ZM887.75 1054.75 874 1082.25 860.25 1054.75Z" fill="#4472C4"/><path d="M0-1.14583 139.058-1.14583 139.058 868.255 137.913 867.109 252.908 867.109 252.908 869.401 136.767 869.401 136.767 0 137.913 1.14583 0 1.14583ZM248.324 854.505 275.824 868.255 248.324 882.005Z" fill="#4472C4" transform="matrix(1.83697e-16 1 1 -1.83697e-16 1166 755)"/><path d="M0-1.14583 163.018-1.14583 163.018 303.13 161.872 301.984 277.108 301.984 277.108 304.276 160.726 304.276 160.726 0 161.872 1.14583 0 1.14583ZM272.524 289.38 300.024 303.13 272.524 316.88Z" fill="#4472C4" transform="matrix(1.83697e-16 1 1 -1.83697e-16 1731 731)"/><path d="M1999.15 1373 1999.15 1548.36 1996.85 1548.36 1996.85 1373ZM2011.75 1543.77 1998 1571.27 1984.25 1543.77Z" fill="#4472C4"/></g></svg>